<?xml version="1.0" encoding="utf-8"?>
<!-- Generator: Adobe Illustrator 24.1.2, SVG Export Plug-In . SVG Version: 6.00 Build 0)  -->
<svg version="1.1" id="Layer_1" xmlns="http://www.w3.org/2000/svg" xmlns:xlink="http://www.w3.org/1999/xlink" x="0px" y="0px"
	 viewBox="0 0 180 180" style="enable-background:new 0 0 180 180;" xml:space="preserve">
<style type="text/css">
	.st0{fill:#010101;}
	.st1{fill:#FFFFFF;}
</style>
<g>
	<path class="st0" d="M0,0h180v180H0V0z"/>
	<g>
		<path class="st1" d="M132.4,69c0,0-1.5-0.1-1.5,2.8l0,11c0,2,0.6,2.5,1.9,2.7c0.4,0.1-0.1,0.6-0.2,0.7c-0.1,0.1-2.7-0.3-5.5,0
			c-0.4,0-0.1-0.3-0.1-0.6c0-0.4,1.6-0.1,1.6-1.9l0-11.5c0-3.3-2.5-3-2.5-3s-0.4-0.8,1.1-0.8c0.6,0,3.7,0.1,5.3,0
			c0.4,0,0.4,0.1,0.3,0.3C132.5,68.8,132.6,69,132.4,69L132.4,69z M72.5,88.6l-5.9-15.9c-1.3-3.6-2.8-3.7-2.8-3.7s-0.3-0.6,1.2-0.6
			h5.7l-0.3,0.8c-0.9,0-1.9,0.7-1.1,3.1L73,82.7c0,0,2.5-6.1,3.4-8.8c0.9-2.8,0.5-3.8-0.7-4.5c-1.2-0.6-0.3-1-0.3-1h5.2v0.6
			c-1.3,0.2-2.2,3.5-2.8,5C76,79,73.2,87.8,73,88.2C72.9,88.6,72.9,88.8,72.5,88.6z M92.2,95.9c-0.2,0.8-1,0.8-2.2,0.8
			c-1.3,0-3.1,0.3-3.1,0.3v-5.3h4.9c0,0,2.1,0.1,2.5,1.9c0.4,1.8,1.4,0.5,1-0.6c-0.4-1.2-0.4-3.1-0.4-3.1L93.4,90H82.7
			c-1.4,0-0.9,0.9-0.9,0.9s2.3-0.1,2.3,2.9l0,11.3c0,1.8-1.4,1.7-1.6,2c-0.4,0.8-0.2,0.7,0.4,0.7c0,0,6.7-0.2,10.7,0
			c0.5,0,1.2,0.4,1.6-0.2c0.4-0.7,0.6-3.9,0.6-3.9s-0.1-1.4-1,0c-0.8,1.4-0.8,2.6-3.9,2.6c-3.1,0-4.1-0.2-4.2-1.2
			c-0.1-1.1,0-6.4,0-6.4s0.4-0.5,1.5-0.5h1.8c0,0,1.6,0.1,2,1.9c0.1,0.4,0.7-0.2,0.7-0.2v-3.6C92.7,96,92.5,95.9,92.2,95.9
			C92.2,95.9,92.2,95.9,92.2,95.9 M106.3,68.3c2.1,0,3.7,1.9,3.7,4c0,2.8-3,4.5-4.8,4.5c0,0,2,1.2,4.8,5.5c2.8,4.3,5.4,5.3,8.2,5.4
			c1,0,3.2-0.1,5.6-1.5c1.6-0.9,0.6,0.4,0.4,0.5c-0.2,0.2-3,2.5-7.2,2.5c-5.1,0-8.4-4.2-10-6.7c-1.6-2.5-3.7-4.7-3.7-4.7
			c-0.9-1.1-2.1-0.7-2.1-0.7v6.9c0-0.2-0.1,1,1.2,1.4c1.4,0.3,0.4,0.9,0.4,0.9l-5.7,0c-0.4,0,0-0.2,0-0.5s1.7-0.1,1.7-1.9l0-11.7
			c0.3-2.9-2.3-3.1-2.3-3.1c0-0.7,0.4-0.8,1.3-0.7C100.2,68.3,105.1,68.4,106.3,68.3L106.3,68.3z M104.7,69.7l-3.5,0.2v5.5
			c0,0,1.5,0.4,2.9,0.3c0.8-0.1,2-0.3,2.5-0.9c0,0,0.6-1.2,0.6-2.2C107.2,71.6,106.3,70,104.7,69.7z"/>
		<path class="st1" d="M125,68.1c0,0-0.4,0.3-1.2,0.2c-0.8-0.1-2.6-0.4-3.8-0.4c-3.1,0.1-6,2.5-6,5c0,2.5,2,4.1,4.8,4.7
			c2.9,0.6,4.5,1.3,4.5,3.8c0,2.1-2.3,3-4,3c-1.7,0-3.9-1.3-4.8-2.8c-0.7-1.1-0.5-2-0.5-2L113,80c0,0,0.3,2.2,0,3.3
			c-0.2,0.8,2.1,2.9,5.7,2.9c4.4,0,7.2-2,7.2-6.3c0-3.6-4.4-4.4-5.6-4.6c-1.3-0.3-3.8-1.2-3.8-3.2c0-2,2.1-2.5,3.7-2.5
			c1.5,0,2.7,0.6,3.3,1.5c0.6,0.9,0.6,1.7,0.6,1.7l0.8-0.3c0,0-0.3-1.9-0.3-2.5C124.7,69.3,125,68.2,125,68.1z M134.9,68.6h10.4
			c0.5,0,1.4-0.5,1.8-0.2c0,0,0.2,0.2,0.2,0.9v3.3c0,0.4-0.7,0.8-0.8,0.2c-0.4-2.3-0.8-2.6-2.5-2.6c-1,0-2.1-0.4-2.1,0.8v13
			c0,1.2,1.4,1.4,1.9,1.6c0.2,0.1-0.2,0.6-0.2,0.6h-6.3c0,0-0.3-0.7,0.3-0.8c0.5-0.1,1.7-1.1,1.7-1.9V71.1c0,0.7,0.2-0.9-0.9-0.9
			c-2.1,0-3.5-0.4-3.9,2.3c-0.1,0.5-0.9,1.2-0.9,0c0-0.4,0.1-2.8,0-3.4C133.3,68.3,133.8,68.2,134.9,68.6L134.9,68.6z M44.6,90
			l0.8-0.1v3.2c-1.1,0-1.2-0.9-1.1-1.5c0.1-0.6-2.4,0.5-4.3,2.2c-1.6,1.5-2.1,3.2-2.1,3.2c0,0.1,2.3,0.2,2.6-0.7
			c0-0.1,0.4,0.2,0.4,0.2v3.1c0,0-0.5,0.6-0.7,0.5c-0.2-0.1,0.6-2-1.6-2c-1.1,0-1.2-0.1-1.2,0c0,0.1-1,4.1-3.6,6.9
			c-2.5,2.8-6.3,3.7-8.4,1.9v-0.9c0,0,1.4,0.7,2.7,0.6c1.5-0.1,3.8-0.8,5.4-3.6c1.7-3,2.1-4.7,2.1-5c0-0.2-0.6-0.1-0.6-0.1l-0.3-1
			h1.4c0,0,0.5-2.2,2.9-4.2C40.6,91.6,42.3,90.4,44.6,90L44.6,90z M62,89.8l-0.2,6.4L61,96.5c0,0-0.7-4-3.3-4.3
			c-2.6-0.3-5.7-0.4-7.3,1.5c-1.6,1.9-2.8,4.9-2.8,8.2c0,4.8,0.9,9.6,7.5,9.6c3.9,0,3.8-3,3.8-2.5v-4.7c0-0.6-1.5-1.3-2.7-1.3l0.3-1
			h8l-0.1,0.8c0,0-2,0.4-2,1.6v6.5c0,0-3.9,1.5-5,2.1c-2.1,1.3-2,1.3-4.2,1.3c-1.8,0-7.1-1.2-8.6-5.9c-1.4-4.6-1.2-10.2,2.1-14.9
			c2.3-3.2,5.4-4,8.7-4c1.8,0,3.5,0.4,4,0.4c0.5,0,1.5-0.4,1.8-0.5C61.6,89.5,62,89.8,62,89.8L62,89.8z M64.5,90h5.9l-0.1,0.9
			c0,0-1.6,0.4-1.6,1.5v10.4c0,2,2.3,3.5,3.9,3.5c1.6,0,5-1.2,5-4.4v-9.6c0-0.6-0.7-1.5-2.4-1.5c-0.4,0,0.7-0.9,0.7-0.9h4.8
			l-0.2,0.9c0,0-1.3,0.4-1.3,1.6c0,1.3-0.1,8.1-0.1,8.8c0,3.8-3.2,7-6.6,7c-4.2,0-6.7-1.9-6.7-5.2V91.9c0-0.6-1.7-1.1-1.7-1.1
			C63.5,90.9,64.5,90,64.5,90z M96.9,90.1h6.3l-0.3,0.7c0,0-1.8-0.3-1.8,2.2v12c0,0.5-0.4,0.7,1.1,1.2c0.7,0.2,4,0.1,4.9-0.3
			c1.7-0.7,2.1-2.8,2.1-2.8l0.5-0.1c0,0-0.2,3.8-0.4,4.4c-0.3,0.5-0.8,0.4-2.1,0.3c-2.2-0.2-10.3,0.1-10.3,0.1l-0.2-0.5
			c0,0,1.7-0.1,1.7-3.7V92.4c0-1.9-1.3-1.2-2-1.7C96.2,90.5,96.9,90.1,96.9,90.1L96.9,90.1z M110.6,90.4c0,0,3.9,0,5.4-0.2
			c2.3-0.4,4.3-0.2,6,0.8c1.2,0.7,1.7,2.3,1.8,3.3c0.2,2-1.2,3.4-2.2,4.2c-1.6,1.2-3,1.3-6.4,1c-0.4,0-0.4,0.7-0.4,1.2v4.8
			c0,0.6,0.9,1.6,2.3,1.6c0.1,0-0.4,0.7-0.4,0.7h-6.2c0,0-0.3-0.4,0.2-0.6c0.4-0.2,1.3-0.4,1.3-1.4c0.1-1.1,0-12.1,0-13.1
			c0-0.5-0.4-1.4-1.7-1.4L110.6,90.4z M114.8,97.6c0,0-0.1,1,3.1,0.9c2.1-0.1,3-2.3,3-3.7c0-1.4-1.2-2.7-2.3-2.9
			c-1.1-0.3-3.8,0-3.8,0L114.8,97.6z M140.5,107.8l0-0.6c-0.4,0-1.6-0.1-1.6-2.1c0-1,0-12.3,0-13.2c0-1,1.8-1.3,1.8-1.3l0.1-0.5
			l-6.1,0l-0.1,0.7c0,0,1.7,0.2,1.7,1.2v5.2h-7.8c-0.4,0-0.3-0.3-0.3-0.7v-4.4c0-1.1,1.3-1.2,1.3-1.2l0.3-0.9h-5.6l-0.2,0.7
			c0,0,1.7-0.2,1.8,1.2c0.1,1,0,12.5,0,13.2c0,0.6-0.5,2-1.6,2.1l-0.1,0.6h5.5c0.1,0,0.8-0.6-0.2-0.9c-0.7-0.2-1.2-0.7-1.2-1.9v-6.2
			c0-0.4,0.1-0.3,0.5-0.3h7.5v6.6c0,1.8-0.9,1.7-1.2,2c-0.5,0.3-0.5,0.6,0,0.7C135.3,107.9,140.5,107.8,140.5,107.8L140.5,107.8z
			 M33.7,72.5c0-2.5-1.2-3.4-3.7-3.6c-0.6-0.1,0.4-0.8,0.4-0.8c3.4-0.1,7.6,0,7.6,0c0.4,0.1,0.3,0.2,0,0.7c-0.2,0.4-2.2-0.4-2.2,3.5
			l0,0.1v12.3c0,2.7-1.9,4.5-1.9,4.5c-1.2,1.5-3.4,3-7.1,3c-8.9,0-8.7-6.8-8.7-6.8V72.9c0-2.5-0.1-3.7-2.6-3.9
			c-0.6-0.1,0.4-0.8,0.4-0.8c3.3,0.3,7.8,0,7.8,0c0.4,0.1,0.3,0.2,0,0.7c-0.2,0.4-2.2-0.3-2.2,3.6v11.1c0,3.9,2.5,6.2,6.1,6.2
			c3.6,0,6.1-2,6.1-5.2L33.7,72.5L33.7,72.5z M54,72.7c0-3.9,1.5-3.1,1.7-3.5c0.3-0.5,0.3-0.6-0.1-0.7c0,0-1.8,0.3-5.1,0
			c0,0-1,0.7-0.3,0.8c2.6,0.2,2.4,1.1,2.4,3.5l0,8.9c-0.4,0.2-8.7-12.2-8.7-12.2l-0.8-1.2c0,0-0.4,0.2-3.8-0.1c0,0-1,0.7-0.4,0.8
			c2.6,0.2,2.3,1.1,2.3,3.6l0,2.5l0,6.9c0,3.9-1.8,3.1-2,3.5c-0.3,0.5-0.3,0.6,0,0.7c0,0,2.1-0.2,5.4,0.1c0,0,1-0.7,0.4-0.8
			c-2.5-0.2-2.4-1.2-2.3-3.6l0-8.9c0,0,8.6,10.8,9.5,13.9c0,0,0.2,0.8,0.7,0.2c0.4-0.4,0.5-0.3,0.7-0.5C54,86.5,54,86.4,54,86
			L54,72.7z M87.2,76.8c0.4-0.3,2.2-0.4,3.3-0.5c1.1-0.1,1.8,1.2,1.9,2c0.1,0.7,0.8,0.2,0.7-0.3c-0.2-1.2,0-2.8,0-3.7
			c0-0.6-0.5-0.4-0.7-0.2c-0.4,0.5-0.8,0.9-1.8,1.1c-1,0.2-3.4,0.4-3.4,0.4l-0.1-0.3V70h4.9c0,0,2.1,0.1,2.7,1.9
			c0.4,1.4,1,0.4,0.8-0.6c-0.2-1.2-0.4-3.1-0.4-3.1l-1.3,0.1H83.1c-0.8,0-0.9,0.8-0.9,0.8s2.3-0.1,2.3,2.9l0,11.4
			c0,1.8-1.9,1.6-1.9,2c0,0.4,0.4,0.8,0.7,0.8H94c0.5,0,1.5,0.5,1.6-0.2c0.1-0.8,0.6-3.9,0.6-3.9s0-0.9-0.8,0
			c-0.4,0.4-0.5,2.5-4.1,2.6c-3.1,0.1-4.1-0.2-4.2-1.2C87.1,82.2,87.1,76.9,87.2,76.8L87.2,76.8z M158.9,86.3c0.8,0,0.6-0.1,0.8-0.4
			c0.3-0.3,0-0.4-0.5-0.4c-0.5,0-1.3-0.2-1.3-1.6c0-1.3,0-5.1,0-5.1c0.3-0.4,2.7-4.6,3.7-6.5l0.5-0.9c0.5-0.9,0.7-1.7,1.7-1.9
			c0.3,0,0.3-0.1,0.7-0.3c0.3-0.1,0.5-0.7,0.2-0.7h-5.4c-0.2,0-1,0.2-0.3,0.6c0.2,0.1,0.8-0.1,1.3,0.4c0.2,0.2,0.7,1.1,0.3,1.9
			l-3.6,5.8c0,0-2.9-5.1-3.4-6c-0.5-0.9-0.4-1.6,0.5-1.7c0.3,0,0.3-0.1,0.7-0.3c0.3-0.1,0.5-0.7,0.2-0.7h-6.2c-0.2,0-1,0.2-0.3,0.6
			c0.2,0.1,1.1,0.4,1.3,0.7c0.2,0.4,4.7,8.4,5.3,9.7c0.2,0.5,0.2,3.6,0.2,4.5c0,1.3-0.4,1.4-1,1.6c-0.4,0.1-0.6,0.3-0.7,0.6
			c0,0.3,0.1,0.2,1.1,0.2C156.5,86.4,158.9,86.3,158.9,86.3L158.9,86.3z M164.4,66.3H14.9l0.7-0.7h149.5L164.4,66.3z M61.3,71.9
			c0-2.9,1.5-2.6,1.5-2.6c0.3,0,0.2-0.3,0.3-0.5c0.1-0.2,0.1-0.3-0.3-0.3c-0.9,0-4.3,0-5,0l-0.4,0c-1.4,0-0.9,0.8-0.9,0.8
			s2.5-0.3,2.5,3l0,11.5c0,1.8-1.6,1.5-1.6,1.9c0,0.4-0.3,0.7,0.1,0.6c2.9-0.3,5.4,0.1,5.5,0c0.1-0.1,0.6-0.7,0.2-0.7
			c-1.3-0.2-1.9-0.7-1.9-2.7L61.3,71.9z M140.2,110.5H64.5l0.7-0.7h75.7L140.2,110.5z"/>
		<path class="st1" d="M27.9,98.3c-0.7,0.9-1.4,2.1-1.6,3.1c-0.6,3.7,1.7,3.8,3,3.6c1.8-0.4,4.1-2.8,4.6-5.5
			C34.6,95.1,30.3,95.4,27.9,98.3z M31.5,101.7c-0.9,1.2-1.4,2-2.9,1.8c-1.4-0.2-1-2.5,0.4-4.3c1.1-1.4,2.6-1.9,3-1
			C32.6,99.5,32.4,100.6,31.5,101.7z"/>
	</g>
</g>
</svg>
