<?xml version="1.0" encoding="utf-8"?>
<!-- Generator: Adobe Illustrator 26.0.0, SVG Export Plug-In . SVG Version: 6.00 Build 0)  -->
<svg version="1.1" id="Layer_1" xmlns="http://www.w3.org/2000/svg" xmlns:xlink="http://www.w3.org/1999/xlink" x="0px" y="0px"
	 viewBox="0 0 233.1 72.2" style="enable-background:new 0 0 233.1 72.2;" xml:space="preserve">
<style type="text/css">
	.st0{fill:#F54862;}
</style>
<g>
	<path class="st0" d="M49.6,32.8c0.4-0.7,0.7-1.3,1.1-2c5.4-10.2,4.4-14.2,3.4-15.7c-1.3-1.8-4.3-2.7-9.2-2.7
		c-2.9,0-6.2,0.3-9.6,0.9c-0.6-3.1-1.5-5.9-2.4-8.1c-1.2-2.8-2.6-4.5-4.1-5.1C28.3,0.1,27.8,0,27.3,0C24,0,18.5,3.9,12.3,10.6
		C5.5,17.9,1.4,25,0.3,31.1c-1.1,5.9,0.5,13.8,8,18.5c0.7,1.6,1.7,2.9,2.9,4.1C14.7,57.2,20,59,26.8,59c6.4,0,14.5-1.8,21.6-4.8
		c3.4-1.4,6.3-3,8.3-4.6c2.4-1.8,3.7-3.7,3.8-5.4c0-1.6-0.9-3.3-2.8-5.3C55.8,37.1,53,34.9,49.6,32.8z M44.9,16.8
		c4,0,5.3,0.7,5.6,0.8c0.2,0.6,0.1,4.1-3.7,11.2c-0.3,0.6-0.6,1.2-1,1.8c-3-1.6-6.1-3-9.1-4.1c0-2.9-0.3-5.9-0.7-8.8
		C39.2,17.1,42.2,16.8,44.9,16.8z M36,36.5c0.3-1.7,0.5-3.5,0.6-5.4c2.3,0.9,4.7,2,6.9,3.2c-2.3,3.5-5,6.7-7.6,9.2
		c-1.1,1-2.2,2-3.3,2.8C34.1,43.7,35.3,40.5,36,36.5z M32.2,25.1c-3.5-1-6.8-1.5-9.7-1.5c-1.6,0-3.1,0.2-4.6,0.5
		c2.7-1.7,5.7-2.9,7.8-3.7c1.9-0.7,3.8-1.3,5.9-1.8C32,20.8,32.2,22.9,32.2,25.1z M7.8,28.5c-0.8,1.6-1.7,3.3-2,5l0,0.2
		c-0.2,0.9-0.6,3-0.1,5.8c-1-2.6-1.6-4.8-1-7.7c0.9-4.8,4.5-11,11.2-18.5c2.3-2.6,4.8-4.9,7-6.6c1.9-1.4,3.6-2.3,4.5-2.4
		c0.8,0.4,2.4,3.8,3.7,9.9c-5,1.2-9.7,3-13.5,5.1C12.9,21.9,9.7,24.9,7.8,28.5z M12.2,45.6c-1.4-2.1-2.1-4.7-2-7.8v0
		c0-1.3,0.7-4.9,2.9-7.1c1.8-1.8,5.1-2.8,9.4-2.8c2.8,0,6.1,0.6,9.7,1.6c-0.1,2.2-0.3,4.3-0.6,6.2c-1.6,9-5.3,13.6-10.9,13.6
		C18.4,49.4,14.1,48.4,12.2,45.6z M47,50c-6.7,2.9-14,4.6-20.1,4.6c-2.3,0-4.4-0.2-6.2-0.7c1.7,0.2,2.8,0.2,3,0.2
		c3.4,0,7.4-1.5,11.3-4.1c4.5-3.1,8.7-7.6,12.5-13.5c3,1.9,5.5,3.8,7.1,5.5c1.2,1.2,1.6,2,1.6,2.1C56,44.6,53.7,47.1,47,50z"/>
	<g>
		<path class="st0" d="M110.8,2.3c-15.1,0-24.8,0-39.7,0c0,2,0,3.8,0,5.9c6.4,0,10,0,16.7,0c0,16.5,0,31.6,0,47.7c2.2,0,4.2,0,6.4,0
			c0-16.3,0-31.3,0-47.8c6.6,0,10.2,0,16.6,0C110.8,6,110.8,4.2,110.8,2.3z"/>
		<path class="st0" d="M146.2,17h-6.3c0,4.1,0,7.8,0,11.5c0,3.7,0.1,7.4-0.1,11.2c-0.4,7.1-4.6,11.1-11.5,11.1
			c-6.9-0.1-11.1-4.1-11.5-11.1c-0.2-3.7-0.1-7.4-0.1-11.2c0-3.7,0-7.4,0-11.5h-6.3c0,1.5,0,2.8,0,4.2c0,5.9-0.1,11.8,0.1,17.6
			c0.1,2.6,0.4,5.3,1.3,7.7c2.4,6.3,8.5,10,16.1,10.1v0c0.1,0,0.2,0,0.3,0c0.1,0,0.2,0,0.3,0v0c7.7-0.2,13.8-3.8,16.1-10.1
			c0.9-2.4,1.2-5.1,1.3-7.7c0.2-5.9,0.1-11.7,0.1-17.6C146.2,19.8,146.2,18.5,146.2,17z"/>
		<path class="st0" d="M229,24.3c-2.9-3.8-6.8-6.3-11.5-7.1c-6.9-1.3-13.2,0.1-18.5,5.8c-0.1-2.2-0.2-3.7-0.2-5.2c-2.2,0-4.1,0-6,0
			c0,18.3,0,36.3,0,54.4c2.1,0,4,0,6.1,0c0-7.1,0-13.9,0-21.2c10.2,7.6,20.7,7.7,28.2,0.5C234.3,44.5,235.1,32.4,229,24.3z
			 M212.5,51.1c-8.1,0-14.1-6.1-14.1-14.4c0-8.1,5.9-14.1,14-14.2c8.2-0.1,14.2,6,14.2,14.2C226.7,45,220.7,51.1,212.5,51.1z"/>
		<path class="st0" d="M156.9,55.9c2.1,0,3.9,0,5.9,0c0-19.7,0-34.3,0-53.6c-2.1,0-3.9,0-5.9,0C156.9,21.9,156.9,36.5,156.9,55.9z"
			/>
		<path class="st0" d="M174.9,56c2.1,0,3.9,0,5.9,0c0-13,0-25.6,0-38.2c-2.1,0-4,0-5.9,0C174.9,30.6,174.9,43.2,174.9,56z"/>
		<path class="st0" d="M177.7,2.3c-2.1,0.1-3.8,1.8-3.8,3.8c0,2,1.8,3.8,3.8,3.8c2.2,0,4-1.7,4-3.9C181.8,3.9,180,2.3,177.7,2.3z"/>
	</g>
</g>
</svg>
